<svg width="31" height="30" viewBox="0 0 31 30" fill="none" xmlns="http://www.w3.org/2000/svg">
<path d="M19.143 11.8374L12.8142 18.1624C12.0012 17.3499 11.5009 16.2374 11.5009 14.9999C11.5009 12.5249 13.5021 10.5249 15.9786 10.5249C17.2168 10.5249 18.33 11.0249 19.143 11.8374Z" stroke="#8E9BAE" stroke-width="1.5" stroke-linecap="round" stroke-linejoin="round"/>
<path d="M23.258 7.2126C21.0692 5.5626 18.5677 4.6626 15.9786 4.6626C11.5634 4.6626 7.44838 7.2626 4.58413 11.7626C3.45845 13.5251 3.45845 16.4876 4.58413 18.2501C5.57224 19.8001 6.72294 21.1376 7.9737 22.2126" stroke="#8E9BAE" stroke-width="1.5" stroke-linecap="round" stroke-linejoin="round"/>
<path d="M11.5009 24.4126C12.9267 25.0126 14.4402 25.3376 15.9786 25.3376C20.3938 25.3376 24.5088 22.7376 27.3731 18.2376C28.4987 16.4751 28.4987 13.5126 27.3731 11.7501C26.9603 11.1001 26.51 10.4876 26.0472 9.9126" stroke="#8E9BAE" stroke-width="1.5" stroke-linecap="round" stroke-linejoin="round"/>
<path d="M20.3688 15.875C20.0436 17.6375 18.6052 19.075 16.8416 19.4" stroke="#8E9BAE" stroke-width="1.5" stroke-linecap="round" stroke-linejoin="round"/>
<path d="M12.8142 18.1626L3.47095 27.5001" stroke="#8E9BAE" stroke-width="1.5" stroke-linecap="round" stroke-linejoin="round"/>
<path d="M28.4862 2.5L19.143 11.8375" stroke="#8E9BAE" stroke-width="1.5" stroke-linecap="round" stroke-linejoin="round"/>
</svg>
