<svg width="24" height="24" viewBox="0 0 24 24" fill="none" xmlns="http://www.w3.org/2000/svg">
<path d="M22.5012 12.2331C22.5012 11.3698 22.4297 10.7398 22.275 10.0864H12.2155V13.983H18.1202C18.0012 14.9514 17.3584 16.4097 15.9298 17.3897L15.9097 17.5202L19.0904 19.9349L19.3107 19.9564C21.3345 18.1247 22.5012 15.4297 22.5012 12.2331Z" fill="#4285F4"/>
<path d="M12.2148 22.5001C15.1077 22.5001 17.5362 21.5667 19.3101 19.9567L15.9291 17.39C15.0244 18.0083 13.81 18.44 12.2148 18.44C9.38155 18.44 6.97681 16.6083 6.11959 14.0767L5.99394 14.0871L2.68668 16.5955L2.64343 16.7133C4.40531 20.1433 8.02435 22.5001 12.2148 22.5001Z" fill="#34A853"/>
<path d="M6.12022 14.0765C5.89403 13.4232 5.76313 12.7231 5.76313 11.9998C5.76313 11.2764 5.89403 10.5765 6.10832 9.92313L6.10233 9.78398L2.75361 7.23535L2.64405 7.28642C1.91789 8.70977 1.50122 10.3081 1.50122 11.9998C1.50122 13.6915 1.91789 15.2897 2.64405 16.7131L6.12022 14.0765Z" fill="#FBBC05"/>
<path d="M12.2149 5.55997C14.2268 5.55997 15.5839 6.41163 16.3577 7.12335L19.3815 4.23C17.5245 2.53834 15.1077 1.5 12.2149 1.5C8.02438 1.5 4.40532 3.85665 2.64343 7.28662L6.10771 9.92332C6.97684 7.39166 9.38158 5.55997 12.2149 5.55997Z" fill="#EB4335"/>
</svg>
