<svg width="409" height="591" viewBox="0 0 409 591" fill="none" xmlns="http://www.w3.org/2000/svg">
<g clip-path="url(#clip0_133_914)">
<path fill-rule="evenodd" clip-rule="evenodd" d="M71.4675 347.355V72.3823C71.4675 60.4848 75.8356 50.2494 84.0279 42.9359C92.2201 35.6049 101.956 33.2429 112.043 36.1298L131.831 41.7987C131.813 42.551 131.778 43.3208 131.778 44.0732V375.664C131.778 376.434 131.796 377.186 131.831 377.939L112.043 383.607C101.956 386.494 92.2377 384.132 84.0279 376.801C75.8356 369.47 71.4675 359.235 71.4675 347.338" fill="#00D395"/>
<path fill-rule="evenodd" clip-rule="evenodd" d="M0 307.936V111.802C0 103.316 3.12254 96.0198 8.96414 90.8059C14.8057 85.5745 21.7525 83.8949 28.9449 85.9594L53.9778 93.1155V326.622L28.9449 333.795C21.7525 335.842 14.8233 334.163 8.96414 328.949C3.12254 323.717 0 316.421 0 307.936Z" fill="#00D395"/>
<path fill-rule="evenodd" clip-rule="evenodd" d="M221.437 412.022L198.544 418.566C186.44 422.03 174.757 419.195 164.933 410.412C155.109 401.629 149.864 389.329 149.864 375.052V43.6187L149.899 42.9538L149.934 42.3064V41.6416L150.005 40.9942L150.057 40.3468L150.11 39.6995L150.18 39.0696L150.25 38.4222L150.32 37.7749L150.408 37.145L150.496 36.5151L150.601 35.8853L150.706 35.2554L150.829 34.643L150.952 34.0307L151.075 33.4183L151.215 32.8059L151.355 32.1935L151.513 31.5812L151.671 30.9863L151.829 30.3914L152.004 29.7965L152.197 29.2017L152.39 28.6068L152.583 28.0294L152.794 27.452L153.004 26.8746L153.215 26.2973L153.443 25.7374L153.688 25.1775L153.934 24.6176L154.18 24.0752L154.443 23.5153L154.706 22.973L154.969 22.4306L155.25 21.8882L155.548 21.3633L155.829 20.8384L156.127 20.3135L156.443 19.7886L156.758 19.2637L157.074 18.7563L157.407 18.2489L157.741 17.759L158.092 17.2516L158.442 16.7617L158.793 16.2719L159.162 15.7994L159.53 15.327L159.898 14.8546L160.284 14.3997L160.67 13.9273L161.074 13.4724L161.477 13.0175L161.881 12.5626L162.302 12.1077L162.723 11.6703L163.144 11.2329L163.582 10.813L164.021 10.3931L164.477 9.97317L164.933 9.55325L165.389 9.15084L165.863 8.74842L166.337 8.3635L166.81 7.97858L167.284 7.61116L167.757 7.24373L168.231 6.89381L168.705 6.54388L169.196 6.21145L169.67 5.87902L170.161 5.56408L170.652 5.24915L171.143 4.93421L171.634 4.65427L172.126 4.37433L172.634 4.09439L173.143 3.83194L173.652 3.5695L174.16 3.32455L174.669 3.0796L175.178 2.85215L175.687 2.6247L176.195 2.41474L176.704 2.20478L177.23 2.01232L177.757 1.81986L178.283 1.6449L178.809 1.46994L179.335 1.31247L179.862 1.155L180.388 1.01503L180.914 0.875061L181.44 0.752586L181.984 0.630112L182.511 0.525134L183.054 0.437652L183.598 0.35017L184.142 0.262688L184.686 0.192703L185.23 0.122717L185.773 0.0702284L186.317 0.0177393L186.861 -0.0172534H187.405L187.949 -0.0522461H188.493H189.054H189.598H190.159L190.703 0.000242967L191.264 0.0352357L191.808 0.0877247L192.369 0.140214L192.913 0.210199L193.475 0.280185L194.036 0.367666L194.597 0.455148L195.141 0.560126L195.72 0.682601L196.281 0.805075L196.843 0.945046L197.404 1.08502L197.965 1.22499L198.527 1.38245L221.42 7.92609L292.501 28.2744L306.237 32.211L379.318 53.1192C396.983 58.1756 409 75.777 409 96.6501V323.263C409 344.119 396.983 361.72 379.318 366.776L292.501 391.621L221.42 411.952L221.437 412.022Z" fill="#00D395"/>
</g>
<g clip-path="url(#clip1_133_914)">
<path d="M59.4568 519.219C61.4431 519.219 63.1068 520.884 63.1068 522.973V532.386C63.1068 534.475 61.4431 536.14 59.4568 536.14H21.65C19.6637 536.14 18 534.475 18 532.386V466.755C18 464.665 19.6637 463 21.65 463H32.1924C34.1787 463 35.8424 464.665 35.8424 466.755V519.219H59.4399H59.4568Z" fill="#202020"/>
<path d="M118.145 519.219C120.233 519.219 121.897 520.884 121.897 522.973V532.386C121.897 534.475 120.233 536.14 118.145 536.14H79.7098C77.6217 536.14 75.958 534.475 75.958 532.386V466.755C75.958 464.665 77.6217 463 79.7098 463H117.194C119.282 463 120.946 464.665 120.946 466.755V476.167C120.946 478.155 119.282 479.82 117.194 479.82H93.8004V491.22H113.85C115.938 491.22 117.602 492.885 117.602 494.975V503.435C117.602 505.525 115.938 507.19 113.85 507.19H93.8004V519.202H118.128L118.145 519.219Z" fill="#202020"/>
<path d="M198.665 467.179L174.745 508.566V532.386C174.745 534.475 173.081 536.14 170.993 536.14H160.552C158.464 536.14 156.801 534.475 156.801 532.386V508.566L132.881 467.179C131.828 465.294 133.186 463 135.274 463H146.343C148.329 463 150.316 464.155 151.249 466.024L165.764 494.023L180.279 466.024C181.213 464.138 183.097 463 185.186 463H196.254C198.342 463 199.701 465.294 198.648 467.179H198.665Z" fill="#202020"/>
<path d="M274.686 467.179L250.766 508.566V532.386C250.766 534.475 249.102 536.14 247.014 536.14H236.574C234.486 536.14 232.822 534.475 232.822 532.386V508.566L208.902 467.179C207.849 465.294 209.207 463 211.313 463H222.381C224.368 463 226.354 464.155 227.288 466.024L241.803 494.023L256.318 466.024C257.251 464.138 259.136 463 261.224 463H272.292C274.381 463 275.739 465.294 274.703 467.179H274.686Z" fill="#202020"/>
<path d="M329.928 519.219C332.016 519.219 333.68 520.884 333.68 522.973V532.386C333.68 534.475 332.016 536.14 329.928 536.14H291.51C289.422 536.14 287.758 534.475 287.758 532.386V466.755C287.758 464.665 289.422 463 291.51 463H328.994C331.082 463 332.746 464.665 332.746 466.755V476.167C332.746 478.155 331.082 479.82 328.994 479.82H305.6V491.22H325.65C327.738 491.22 329.402 492.885 329.402 494.975V503.435C329.402 505.525 327.738 507.19 325.65 507.19H305.6V519.202H329.928V519.219Z" fill="#202020"/>
<path d="M403.25 536.157H391.757C389.991 536.157 388.412 535.104 387.58 533.541L376.614 511.59C376.308 511.59 375.884 511.692 375.561 511.692H365.324V532.386C365.324 534.475 363.66 536.14 361.674 536.14H351.234C349.145 536.14 347.482 534.475 347.482 532.386V466.755C347.482 464.665 349.145 463 351.234 463H375.561C394.15 463 403.657 473.551 403.657 488.281C403.657 496.962 399.379 503.639 392.385 507.615L405.643 531.961C406.696 533.847 405.338 536.14 403.25 536.14V536.157ZM365.341 496.656H375.578C380.807 496.656 385.594 494.465 385.594 488.298C385.594 482.861 381.52 479.837 375.578 479.837H365.341V496.656Z" fill="#202020"/>
<path d="M65.5853 553.385H68.6921C69.3372 553.385 69.7616 554.03 69.5579 554.625L58.3363 589.658C58.0647 590.456 57.3177 591 56.5029 591H54.194C53.3282 591 52.5813 590.456 52.3606 589.658L44.5174 564.343L36.6742 589.658C36.4535 590.456 35.7065 591 34.8407 591H32.5319C31.734 591 30.9701 590.456 30.6984 589.658L19.5109 554.625C19.2902 554.03 19.7316 553.385 20.3767 553.385H23.4834C24.3492 553.385 25.0452 553.928 25.3169 554.727L33.7542 582.573L42.2935 554.727C42.5651 553.928 43.2611 553.385 44.1269 553.385H44.9927C45.8585 553.385 46.5546 553.928 46.8262 554.727L55.3654 582.573L63.8028 554.727C64.0744 553.928 64.7705 553.385 65.6363 553.385H65.5853Z" fill="#202020"/>
<path d="M134.239 589.726L131.506 581.927H115.395L112.662 589.726C112.39 590.473 111.694 591.017 110.896 591.017H107.789C107.144 591.017 106.669 590.371 106.923 589.726L119.978 554.625C120.25 553.877 120.946 553.385 121.744 553.385H125.173C125.971 553.385 126.684 553.86 126.939 554.625L140.045 589.726C140.265 590.371 139.773 591.017 139.128 591.017H136.072C135.206 591.017 134.51 590.473 134.239 589.726ZM129.774 577.034L123.442 559.144L117.16 577.034H129.774Z" fill="#202020"/>
<path d="M202.315 586.124C203.113 586.124 203.758 586.77 203.758 587.517V589.556C203.758 590.354 203.113 591 202.315 591H184.388C183.59 591 182.945 590.354 182.945 589.556V554.846C182.945 554.047 183.59 553.402 184.388 553.402H186.866C187.664 553.402 188.309 554.047 188.309 554.846V586.124H202.332H202.315Z" fill="#202020"/>
<path d="M266.639 586.124C267.437 586.124 268.082 586.77 268.082 587.517V589.556C268.082 590.354 267.437 591 266.639 591H248.712C247.914 591 247.269 590.354 247.269 589.556V554.846C247.269 554.047 247.914 553.402 248.712 553.402H251.19C251.988 553.402 252.633 554.047 252.633 554.846V586.124H266.656H266.639Z" fill="#202020"/>
<path d="M331.32 586.124C332.118 586.124 332.763 586.77 332.763 587.517V589.556C332.763 590.354 332.118 591 331.32 591H312.951C312.204 591 311.559 590.354 311.559 589.556V554.846C311.559 554.047 312.204 553.402 312.951 553.402H330.828C331.625 553.402 332.271 554.047 332.271 554.846V556.834C332.271 557.632 331.625 558.278 330.828 558.278H316.924V569.083H329.605C330.403 569.083 331.048 569.729 331.048 570.527V572.515C331.048 573.314 330.403 573.959 329.605 573.959H316.924V586.107H331.32V586.124Z" fill="#202020"/>
<path d="M399.617 554.846V556.834C399.617 557.632 398.972 558.278 398.174 558.278H390.127V589.556C390.127 590.354 389.482 591 388.684 591H386.205C385.407 591 384.762 590.354 384.762 589.556V558.278H376.698C375.9 558.278 375.255 557.632 375.255 556.834V554.846C375.255 554.047 375.9 553.402 376.698 553.402H398.174C398.972 553.402 399.617 554.047 399.617 554.846Z" fill="#202020"/>
</g>
<defs>
<clipPath id="clip0_133_914">
<rect width="409" height="420" fill="white"/>
</clipPath>
<clipPath id="clip1_133_914">
<rect width="388" height="128" fill="white" transform="translate(18 463)"/>
</clipPath>
</defs>
</svg>
