<svg width="161" height="164" viewBox="0 0 161 164" fill="none" xmlns="http://www.w3.org/2000/svg">
<path fill-rule="evenodd" clip-rule="evenodd" d="M28.6633 135.369V28.2245C28.6633 23.5886 30.3654 19.6004 33.5575 16.7507C36.7497 13.8941 40.5433 12.9737 44.4737 14.0986L52.1841 16.3075C52.1773 16.6007 52.1636 16.9006 52.1636 17.1938V146.399C52.1636 146.699 52.1704 146.993 52.1841 147.286L44.4737 149.495C40.5433 150.619 36.7565 149.699 33.5575 146.843C30.3654 143.986 28.6633 139.998 28.6633 135.362" fill="#00D395"/>
<path fill-rule="evenodd" clip-rule="evenodd" d="M0.815796 120.009V43.5844C0.815796 40.2779 2.0325 37.435 4.30871 35.4033C6.58491 33.3649 9.29175 32.7104 12.0943 33.5149L21.8485 36.3032V127.29L12.0943 130.085C9.29175 130.883 6.59174 130.228 4.30871 128.197C2.0325 126.158 0.815796 123.315 0.815796 120.009Z" fill="#00D395"/>
<path fill-rule="evenodd" clip-rule="evenodd" d="M87.0995 160.566L78.1793 163.116C73.4628 164.466 68.9104 163.361 65.0826 159.939C61.2547 156.517 59.2109 151.724 59.2109 146.161V17.0165L59.2246 16.7575L59.2383 16.5052V16.2461L59.2656 15.9939L59.2861 15.7416L59.3066 15.4894L59.334 15.244L59.3613 14.9917L59.3887 14.7395L59.4228 14.494L59.457 14.2486L59.498 14.0032L59.539 13.7578L59.5869 13.5191L59.6347 13.2805L59.6826 13.0419L59.7373 12.8033L59.7919 12.5647L59.8535 12.3261L59.915 12.0943L59.9765 11.8625L60.0449 11.6307L60.1201 11.3989L60.1952 11.1671L60.2704 10.9421L60.3525 10.7171L60.4345 10.4922L60.5165 10.2672L60.6054 10.049L60.7011 9.83086L60.7968 9.6127L60.8925 9.40136L60.995 9.1832L61.0975 8.97185L61.2 8.76051L61.3094 8.54917L61.4256 8.34464L61.535 8.14012L61.6512 7.93559L61.7742 7.73107L61.8973 7.52654L62.0203 7.32883L62.1502 7.13112L62.28 6.94023L62.4168 6.74253L62.5535 6.55163L62.6902 6.36074L62.8337 6.17667L62.9773 5.9926L63.1208 5.80853L63.2712 5.63127L63.4216 5.4472L63.5788 5.26994L63.736 5.09269L63.8932 4.91543L64.0573 4.73818L64.2213 4.56774L64.3854 4.3973L64.5563 4.23368L64.7271 4.07006L64.9049 3.90644L65.0826 3.74282L65.2603 3.58601L65.4449 3.42921L65.6294 3.27923L65.814 3.12924L65.9985 2.98607L66.1831 2.84291L66.3676 2.70655L66.5522 2.5702L66.7436 2.44067L66.9282 2.31114L67.1195 2.18842L67.3109 2.06571L67.5023 1.94299L67.6937 1.83391L67.8851 1.72483L68.0833 1.61575L68.2816 1.51349L68.4798 1.41123L68.678 1.31578L68.8763 1.22034L69.0745 1.13171L69.2727 1.04308L69.4709 0.96127L69.6692 0.87946L69.8742 0.804467L70.0793 0.729474L70.2844 0.661299L70.4894 0.593124L70.6945 0.531766L70.8995 0.470409L71.1046 0.415869L71.3097 0.361328L71.5147 0.313606L71.7266 0.265883L71.9317 0.224978L72.1436 0.190891L72.3555 0.156803L72.5674 0.122715L72.7793 0.0954453L72.9912 0.0681752L73.2031 0.0477226L73.415 0.0272701L73.6269 0.013635H73.8388L74.0507 0H74.2626H74.4813H74.6932H74.912L75.1238 0.0204526L75.3426 0.0340876L75.5545 0.0545401L75.7732 0.0749927L75.9851 0.102263L76.2038 0.129533L76.4226 0.16362L76.6413 0.197708L76.8532 0.238613L77.0788 0.286336L77.2975 0.334058L77.5163 0.388599L77.735 0.443139L77.9537 0.497679L78.1725 0.559036L87.0927 3.10879L114.79 11.0376L120.142 12.5715L148.619 20.7184C155.502 22.6887 160.184 29.5471 160.184 37.6804V125.981C160.184 134.107 155.502 140.966 148.619 142.936L114.79 152.617L87.0927 160.539L87.0995 160.566Z" fill="#00D395"/>
</svg>
